# xmcd CD database file
#
# Track frame offsets:
#	150
#	29635
#	58970
#	81817
#	101139
#	139024
#	172334
#	199538
#	223698
#	247483
#	281543
#	300378
#	326113
#
# Disc length: 4712 seconds
#
# Revision: 0
# Processed by: cddbd v1.5.2PL0 Copyright (c) Steve Scherf et al.
# Submitted via: CDex 1.51
#
DISCID=cf12660d
DTITLE=Mitch Ryder feat Engerling - Live 2014 - 20th Anniversary
DYEAR=2015
DGENRE=Blues
TTITLE0=Rock N' Roll
TTITLE1=Long Hard Road
TTITLE2=Aint Nobody White
TTITLE3=Wicked Messenger
TTITLE4=WAR
TTITLE5=Do You Feel
TTITLE6=Freezin' In Hell
TTITLE7=Mercy
TTITLE8=One Hair
TTITLE9=Haeven Takes You
TTITLE10=Herman's Garden
TTITLE11=All Along The Watchtower
TTITLE12=Moondog House
EXTD=YEAR: 2015
EXTT0=
EXTT1=
EXTT2=
EXTT3=
EXTT4=
EXTT5=
EXTT6=
EXTT7=
EXTT8=
EXTT9=
EXTT10=
EXTT11=
EXTT12=
PLAYORDER=
